<svg width="87" height="87" viewBox="0 0 87 87" fill="none" xmlns="http://www.w3.org/2000/svg">
<rect x="0.166016" y="0.262695" width="86" height="86.1897" rx="6.89517" fill="#FCEEDA"/>
<path opacity="0.4" d="M53.3039 35.6025C53.1756 35.5842 53.0473 35.5842 52.9189 35.6025C50.0773 35.5108 47.8223 33.1825 47.8223 30.3225C47.8223 27.4075 50.1873 25.0242 53.1206 25.0242C56.0356 25.0242 58.4189 27.3892 58.4189 30.3225C58.4006 33.1825 56.1456 35.5108 53.3039 35.6025Z" fill="#FF9029"/>
<path opacity="0.4" d="M59.2813 48.3074C57.2279 49.6824 54.3496 50.1957 51.6913 49.8474C52.3879 48.3441 52.7546 46.6758 52.7729 44.9158C52.7729 43.0824 52.3696 41.3408 51.5996 39.8191C54.3129 39.4524 57.1913 39.9657 59.2629 41.3407C62.1596 43.2474 62.1596 46.3824 59.2813 48.3074Z" fill="#FF9029"/>
<path opacity="0.4" d="M32.9724 35.6025C33.1007 35.5842 33.2291 35.5842 33.3574 35.6025C36.1991 35.5108 38.4541 33.1825 38.4541 30.3225C38.4541 27.4075 36.0891 25.0242 33.1558 25.0242C30.2408 25.0242 27.8574 27.3892 27.8574 30.3225C27.8758 33.1825 30.1307 35.5108 32.9724 35.6025Z" fill="#FF9029"/>
<path opacity="0.4" d="M33.1731 44.9156C33.1731 46.694 33.5581 48.3806 34.2548 49.9023C31.6698 50.1773 28.9748 49.6273 26.9948 48.3256C24.0981 46.4006 24.0981 43.2656 26.9948 41.3406C28.9564 40.0206 31.7248 39.489 34.3281 39.7823C33.5764 41.3223 33.1731 43.064 33.1731 44.9156Z" fill="#FF9029"/>
<path d="M43.3868 50.4527C43.2401 50.4343 43.0751 50.4343 42.9101 50.4527C39.5368 50.3427 36.8418 47.5743 36.8418 44.1643C36.8418 40.681 39.6468 37.8577 43.1485 37.8577C46.6318 37.8577 49.4551 40.681 49.4551 44.1643C49.4551 47.5743 46.7785 50.3427 43.3868 50.4527Z" fill="#FF9029"/>
<path d="M37.4278 54.2473C34.6595 56.0989 34.6595 59.1423 37.4278 60.9756C40.5811 63.0839 45.7511 63.0839 48.9045 60.9756C51.6728 59.1239 51.6728 56.0806 48.9045 54.2473C45.7695 52.1389 40.5995 52.1389 37.4278 54.2473Z" fill="#FF9029"/>
</svg>
