<svg width="87" height="87" viewBox="0 0 87 87" fill="none" xmlns="http://www.w3.org/2000/svg">
<rect x="0.630859" y="0.262695" width="86" height="86.1897" rx="6.89517" fill="#E8FBE7"/>
<path opacity="0.4" d="M54.6309 55.9341H53.2375C51.7708 55.9341 50.3775 56.5024 49.3508 57.5291L46.2158 60.6274C44.7858 62.0391 42.4576 62.0391 41.0276 60.6274L37.8925 57.5291C36.8658 56.5024 35.4542 55.9341 34.0059 55.9341H32.6309C29.5875 55.9341 27.1309 53.4958 27.1309 50.4892V30.4874C27.1309 27.4808 29.5875 25.0425 32.6309 25.0425H54.6309C57.6742 25.0425 60.1309 27.4808 60.1309 30.4874V50.4892C60.1309 53.4775 57.6742 55.9341 54.6309 55.9341Z" fill="#009E3D"/>
<path d="M43.6311 40.4425C45.9902 40.4425 47.9028 38.53 47.9028 36.1709C47.9028 33.8117 45.9902 31.8992 43.6311 31.8992C41.2719 31.8992 39.3594 33.8117 39.3594 36.1709C39.3594 38.53 41.2719 40.4425 43.6311 40.4425Z" fill="#009E3D"/>
<path d="M48.5437 48.9674C50.0287 48.9674 50.8904 47.3174 50.0654 46.0891C48.8187 44.2374 46.3987 42.9907 43.6304 42.9907C40.862 42.9907 38.442 44.2374 37.1953 46.0891C36.3703 47.3174 37.232 48.9674 38.717 48.9674H48.5437Z" fill="#009E3D"/>
</svg>
