<svg width="87" height="87" viewBox="0 0 87 87" fill="none" xmlns="http://www.w3.org/2000/svg">
<rect x="0.703125" y="0.262695" width="86" height="86.1897" rx="6.89517" fill="#DEEBFF"/>
<path d="M60.368 34.1542C58.8097 32.4309 56.2064 31.5692 52.4297 31.5692H51.9897V31.4959C51.9897 28.4159 51.9897 24.6025 45.0964 24.6025H42.3097C35.4164 24.6025 35.4164 28.4342 35.4164 31.4959V31.5875H34.9764C31.1814 31.5875 28.5964 32.4492 27.038 34.1725C25.223 36.1892 25.278 38.9025 25.4614 40.7542L25.4797 40.8825L25.663 42.8075C25.6814 42.8259 25.718 42.8625 25.7547 42.8809C26.3597 43.2842 26.983 43.6875 27.643 44.0542C27.8997 44.2192 28.1747 44.3659 28.4497 44.5125C31.5847 46.2359 35.0314 47.3909 38.533 47.9592C38.698 49.6825 39.4497 51.6992 43.4647 51.6992C47.4797 51.6992 48.268 49.7009 48.3964 47.9225C52.1364 47.3175 55.748 46.0159 59.0114 44.1092C59.1214 44.0542 59.1947 43.9992 59.2864 43.9442C60.1297 43.4675 60.918 42.9542 61.688 42.3859C61.7247 42.3675 61.7614 42.3309 61.7797 42.2942L61.853 41.6342L61.9447 40.7725C61.963 40.6625 61.963 40.5709 61.9814 40.4425C62.128 38.5909 62.0914 36.0609 60.368 34.1542ZM45.7014 46.7125C45.7014 48.6559 45.7014 48.9492 43.4464 48.9492C41.1914 48.9492 41.1914 48.6009 41.1914 46.7309V44.4209H45.7014V46.7125ZM38.038 31.5692V31.4959C38.038 28.3792 38.038 27.2242 42.3097 27.2242H45.0964C49.368 27.2242 49.368 28.3975 49.368 31.4959V31.5875H38.038V31.5692Z" fill="#4285F4"/>
<path opacity="0.4" d="M59.2874 43.9076C59.1957 43.9626 59.1041 44.0176 59.0124 44.0726C55.7491 45.9792 52.1374 47.2626 48.3974 47.8859C48.2507 49.6459 47.4807 51.6626 43.4657 51.6626C39.4507 51.6626 38.6807 49.6642 38.5341 47.9226C35.0324 47.3726 31.5857 46.2176 28.4507 44.4759C28.1757 44.3292 27.9007 44.1826 27.6441 44.0176C26.9841 43.6509 26.3607 43.2476 25.7557 42.8442C25.7191 42.8259 25.6824 42.7892 25.6641 42.7709L26.7824 54.7059C27.1674 58.3542 28.6707 62.1126 36.7374 62.1126H50.7074C58.7741 62.1126 60.2774 58.3542 60.6624 54.6876L61.8174 42.2576C61.7991 42.2942 61.7624 42.3309 61.7257 42.3492C60.9374 42.9176 60.1307 43.4492 59.2874 43.9076Z" fill="#4285F4"/>
</svg>
