<svg width="87" height="87" viewBox="0 0 87 87" fill="none" xmlns="http://www.w3.org/2000/svg">
<rect x="0.238281" y="0.262695" width="86" height="86.1897" rx="6.89517" fill="#FFD5D2"/>
<path opacity="0.4" d="M37.7376 25.0242C32.9343 25.0242 29.0293 28.9292 29.0293 33.7325C29.0293 38.4442 32.7143 42.2575 37.5176 42.4225C37.6643 42.4042 37.811 42.4042 37.921 42.4225C37.9576 42.4225 37.976 42.4225 38.0126 42.4225C38.031 42.4225 38.031 42.4225 38.0493 42.4225C42.7426 42.2575 46.4276 38.4442 46.446 33.7325C46.446 28.9292 42.541 25.0242 37.7376 25.0242Z" fill="#AC2028"/>
<path d="M47.052 47.299C41.937 43.889 33.5954 43.889 28.4437 47.299C26.1154 48.8573 24.832 50.9656 24.832 53.2206C24.832 55.4756 26.1154 57.5656 28.4254 59.1056C30.992 60.829 34.3654 61.6906 37.7387 61.6906C41.112 61.6906 44.4854 60.829 47.052 59.1056C49.362 57.5473 50.6454 55.4573 50.6454 53.184C50.627 50.929 49.362 48.839 47.052 47.299Z" fill="#AC2028"/>
<path opacity="0.4" d="M57.8874 34.8139C58.1808 38.3705 55.6508 41.4872 52.1491 41.9089C52.1308 41.9089 52.1308 41.9089 52.1124 41.9089H52.0574C51.9474 41.9089 51.8374 41.9089 51.7458 41.9455C49.9674 42.0372 48.3358 41.4689 47.1074 40.4239C48.9958 38.7372 50.0774 36.2072 49.8574 33.4572C49.7291 31.9722 49.2158 30.6155 48.4458 29.4605C49.1424 29.1122 49.9491 28.8922 50.7741 28.8189C54.3674 28.5072 57.5758 31.1839 57.8874 34.8139Z" fill="#AC2028"/>
<path d="M61.5534 51.7725C61.4067 53.5508 60.2701 55.0908 58.3634 56.1358C56.5301 57.1442 54.2201 57.6208 51.9284 57.5658C53.2484 56.3742 54.0184 54.8892 54.1651 53.3125C54.3484 51.0392 53.2667 48.8575 51.1034 47.1158C49.8751 46.1442 48.4451 45.3742 46.8867 44.8058C50.9384 43.6325 56.0351 44.4208 59.1701 46.9508C60.8567 48.3075 61.7184 50.0125 61.5534 51.7725Z" fill="#AC2028"/>
</svg>
